<svg xmlns="http://www.w3.org/2000/svg" width="56.69" height="56.69" xml:space="preserve"><path d="M37.134 30.773c-.153 0-.303-.003-.454-.01l-31.382.01a1 1 0 1 1 0-2l31.426-.009c.165.006.287.009.411.009 4.708 0 8.538-3.83 8.538-8.538 0-4.707-3.83-8.537-8.538-8.537-4.707 0-8.537 3.83-8.537 8.537 0 1.158.228 2.28.675 3.334a1 1 0 0 1-1.84.784 10.463 10.463 0 0 1-.835-4.117c0-5.81 4.727-10.537 10.537-10.537s10.538 4.728 10.538 10.537c-.001 5.81-4.729 10.537-10.539 10.537zm15.26 8.969c0-3.998-3.252-7.25-7.25-7.25-.105 0-.209.002-.27.006l-39.577-.006a1 1 0 1 0 0 2l39.62.005.227-.005c2.895 0 5.25 2.355 5.25 5.25s-2.355 5.25-5.25 5.25a5.256 5.256 0 0 1-4.835-7.3 1 1 0 0 0-1.84-.784 7.185 7.185 0 0 0-.575 2.833c0 3.998 3.252 7.25 7.25 7.25s7.25-3.251 7.25-7.249zM5.297 26.867l11.721-.004.229.004c3.197 0 5.799-2.602 5.799-5.799s-2.602-5.799-5.799-5.799a5.807 5.807 0 0 0-5.34 8.066 1 1 0 1 0 1.84-.784 3.803 3.803 0 0 1 3.5-5.282c2.095 0 3.799 1.704 3.799 3.799s-1.704 3.799-3.799 3.799l-.207-.004-11.744.004a1 1 0 1 0 .001 2zm15.167 10.667a1 1 0 0 0-1-1H5.297a1 1 0 1 0 0 2h14.167a1 1 0 0 0 1-1z"/></svg>