<svg xmlns="http://www.w3.org/2000/svg" width="56.69" height="56.69" xml:space="preserve"><path d="M49.98 20.655c.078-.597.117-1.164.117-1.721 0-7.641-6.217-13.857-13.859-13.857-4.576 0-8.873 2.298-11.441 6.059a9.112 9.112 0 0 0-4.184-1.014c-4.743 0-8.654 3.634-9.096 8.298-4.907.84-8.507 5.045-8.507 10.117 0 5.667 4.611 10.277 10.279 10.277h30.113c5.668 0 10.277-4.61 10.277-10.277a10.157 10.157 0 0 0-3.699-7.882zm-6.578 16.159H13.29c-4.565 0-8.279-3.713-8.279-8.277 0-4.251 3.317-7.869 7.554-8.237l.911-.12v-.917c0-3.938 3.202-7.141 7.139-7.141a7.11 7.11 0 0 1 3.957 1.198l.885.59.534-.92c2.121-3.647 6.047-5.913 10.249-5.913 6.539 0 11.859 5.319 11.859 11.857 0 .624-.059 1.271-.178 1.979l-.104.607.494.365c2.141 1.581 3.369 4.005 3.369 6.65 0 4.567-3.713 8.279-8.278 8.279zM16.618 48.155l-.008 2.461a1 1 0 0 1-1 .997h-.003a1 1 0 0 1-.997-1.003l.008-2.461a1 1 0 0 1 1-.997h.003c.552.002.999.452.997 1.003zm.019-6-.01 3a1 1 0 0 1-1 .997h-.003a1 1 0 0 1-.997-1.003l.01-3a1 1 0 0 1 2 .006zm6.721-.001-.002 1a1 1 0 0 1-1 .998h-.002a1 1 0 0 1-.998-1.002l.002-1a1 1 0 0 1 1-.998h.002a1 1 0 0 1 .998 1.002zm-.016 4.91-.002 1a1 1 0 0 1-1 .998h-.002a1 1 0 0 1-.998-1.002l.002-1a1 1 0 0 1 1-.998h.002a1 1 0 0 1 .998 1.002zm6.726 1.091-.008 2.461a1 1 0 0 1-1 .997h-.002a1 1 0 0 1-.998-1.003l.008-2.461a1 1 0 0 1 1-.997h.004a1 1 0 0 1 .996 1.003zm.02-6-.01 3a1 1 0 0 1-1 .997h-.002a1 1 0 0 1-.998-1.003l.01-3a1 1 0 0 1 1-.997h.004a1 1 0 0 1 .996 1.003zm6.723.001-.004 1a1 1 0 0 1-1 .996h-.004a1 1 0 0 1-.996-1.004l.004-1a1 1 0 0 1 1-.996h.004a1 1 0 0 1 .996 1.004zm-.016 4.91-.004 1a1 1 0 0 1-1 .996h-.004a1 1 0 0 1-.996-1.004l.004-1a1 1 0 0 1 1-.996h.004a1 1 0 0 1 .996 1.004zm6.726 1.089-.008 2.461a1 1 0 0 1-1 .997h-.002a1 1 0 0 1-.998-1.003l.008-2.461a1 1 0 0 1 1-.997h.004a1 1 0 0 1 .996 1.003zm.018-6-.008 3a1 1 0 0 1-1 .997h-.004a.998.998 0 0 1-.996-1.003l.008-3a1 1 0 0 1 1-.997h.004a.999.999 0 0 1 .996 1.003z"/></svg>